<mxfile host="app.diagrams.net" modified="2023-11-20T12:37:19.190Z" agent="Mozilla/5.0 (X11; Ubuntu; Linux x86_64; rv:109.0) Gecko/20100101 Firefox/119.0" etag="GIs7G2CjcyelPYU91Lil" version="21.4.0" type="device">
  <diagram name="Page-1" id="4T1n0cJF6cKKiMUrsaws">
    <mxGraphModel dx="1299" dy="757" grid="1" gridSize="10" guides="1" tooltips="1" connect="1" arrows="1" fold="1" page="1" pageScale="1" pageWidth="850" pageHeight="1100" math="0" shadow="0">
      <root>
        <mxCell id="0" />
        <mxCell id="1" parent="0" />
        <mxCell id="HDWZiregH_nEVvl4NQ3f-1" value="&lt;font style=&quot;font-size: 20px;&quot;&gt;RPG CHESS&lt;br&gt;&lt;/font&gt;" style="ellipse;whiteSpace=wrap;html=1;" vertex="1" parent="1">
          <mxGeometry x="90" y="250" width="140" height="120" as="geometry" />
        </mxCell>
        <mxCell id="HDWZiregH_nEVvl4NQ3f-2" value="" style="endArrow=none;html=1;rounded=0;exitX=1;exitY=0;exitDx=0;exitDy=0;" edge="1" parent="1" source="HDWZiregH_nEVvl4NQ3f-1" target="HDWZiregH_nEVvl4NQ3f-3">
          <mxGeometry width="50" height="50" relative="1" as="geometry">
            <mxPoint x="390" y="300" as="sourcePoint" />
            <mxPoint x="460" y="230" as="targetPoint" />
          </mxGeometry>
        </mxCell>
        <mxCell id="HDWZiregH_nEVvl4NQ3f-3" value="&lt;font style=&quot;font-size: 19px;&quot;&gt;Player&lt;/font&gt;" style="ellipse;whiteSpace=wrap;html=1;aspect=fixed;" vertex="1" parent="1">
          <mxGeometry x="340" y="250" width="80" height="80" as="geometry" />
        </mxCell>
        <mxCell id="HDWZiregH_nEVvl4NQ3f-4" value="" style="endArrow=none;html=1;rounded=0;exitX=0.95;exitY=0.175;exitDx=0;exitDy=0;exitPerimeter=0;" edge="1" parent="1" source="HDWZiregH_nEVvl4NQ3f-3" target="HDWZiregH_nEVvl4NQ3f-7">
          <mxGeometry width="50" height="50" relative="1" as="geometry">
            <mxPoint x="540" y="180" as="sourcePoint" />
            <mxPoint x="590" y="270" as="targetPoint" />
          </mxGeometry>
        </mxCell>
        <mxCell id="HDWZiregH_nEVvl4NQ3f-7" value="&lt;font style=&quot;font-size: 20px;&quot;&gt;Friends&lt;/font&gt;" style="ellipse;whiteSpace=wrap;html=1;fillColor=#6a00ff;fontColor=#ffffff;strokeColor=#3700CC;" vertex="1" parent="1">
          <mxGeometry x="490" y="230" width="120" height="80" as="geometry" />
        </mxCell>
        <mxCell id="HDWZiregH_nEVvl4NQ3f-8" value="" style="endArrow=none;html=1;rounded=0;exitX=0.5;exitY=0;exitDx=0;exitDy=0;" edge="1" parent="1" source="HDWZiregH_nEVvl4NQ3f-7" target="HDWZiregH_nEVvl4NQ3f-9">
          <mxGeometry width="50" height="50" relative="1" as="geometry">
            <mxPoint x="720" y="330" as="sourcePoint" />
            <mxPoint x="680" y="160" as="targetPoint" />
          </mxGeometry>
        </mxCell>
        <mxCell id="HDWZiregH_nEVvl4NQ3f-9" value="&lt;font style=&quot;font-size: 22px;&quot;&gt;Filter &lt;br&gt;&lt;/font&gt;" style="ellipse;whiteSpace=wrap;html=1;fillColor=#6a00ff;fontColor=#ffffff;strokeColor=#3700CC;" vertex="1" parent="1">
          <mxGeometry x="560" y="20" width="120" height="80" as="geometry" />
        </mxCell>
        <mxCell id="HDWZiregH_nEVvl4NQ3f-10" value="" style="endArrow=none;html=1;rounded=0;exitX=1;exitY=0.5;exitDx=0;exitDy=0;" edge="1" parent="1" source="HDWZiregH_nEVvl4NQ3f-7" target="HDWZiregH_nEVvl4NQ3f-11">
          <mxGeometry width="50" height="50" relative="1" as="geometry">
            <mxPoint x="400" y="440" as="sourcePoint" />
            <mxPoint x="680" y="280" as="targetPoint" />
          </mxGeometry>
        </mxCell>
        <mxCell id="HDWZiregH_nEVvl4NQ3f-11" value="&lt;font style=&quot;font-size: 18px;&quot;&gt;Add/Remove Friends&lt;br&gt;&lt;/font&gt;" style="ellipse;whiteSpace=wrap;html=1;fillColor=#6a00ff;fontColor=#ffffff;strokeColor=#3700CC;" vertex="1" parent="1">
          <mxGeometry x="690" y="150" width="120" height="80" as="geometry" />
        </mxCell>
        <mxCell id="HDWZiregH_nEVvl4NQ3f-12" value="" style="endArrow=none;html=1;rounded=0;exitX=1;exitY=1;exitDx=0;exitDy=0;" edge="1" parent="1" source="HDWZiregH_nEVvl4NQ3f-7" target="HDWZiregH_nEVvl4NQ3f-13">
          <mxGeometry width="50" height="50" relative="1" as="geometry">
            <mxPoint x="400" y="440" as="sourcePoint" />
            <mxPoint x="690" y="380" as="targetPoint" />
          </mxGeometry>
        </mxCell>
        <mxCell id="HDWZiregH_nEVvl4NQ3f-13" value="&lt;font style=&quot;font-size: 18px;&quot;&gt;View Profile&lt;br&gt;&lt;/font&gt;" style="ellipse;whiteSpace=wrap;html=1;fillColor=#6a00ff;fontColor=#ffffff;strokeColor=#3700CC;" vertex="1" parent="1">
          <mxGeometry x="690" y="250" width="120" height="80" as="geometry" />
        </mxCell>
        <mxCell id="HDWZiregH_nEVvl4NQ3f-14" value="" style="endArrow=none;html=1;rounded=0;exitX=0.633;exitY=1;exitDx=0;exitDy=0;exitPerimeter=0;" edge="1" parent="1" source="HDWZiregH_nEVvl4NQ3f-7" target="HDWZiregH_nEVvl4NQ3f-15">
          <mxGeometry width="50" height="50" relative="1" as="geometry">
            <mxPoint x="400" y="440" as="sourcePoint" />
            <mxPoint x="700" y="480" as="targetPoint" />
          </mxGeometry>
        </mxCell>
        <mxCell id="HDWZiregH_nEVvl4NQ3f-15" value="&lt;div style=&quot;font-size: 16px;&quot;&gt;&lt;font style=&quot;font-size: 16px;&quot;&gt;Spectate Ongoing&lt;/font&gt;&lt;/div&gt;&lt;div style=&quot;font-size: 16px;&quot;&gt;&lt;font style=&quot;font-size: 16px;&quot;&gt;Game&lt;font style=&quot;font-size: 16px;&quot;&gt;&lt;br&gt;&lt;/font&gt;&lt;/font&gt;&lt;/div&gt;" style="ellipse;whiteSpace=wrap;html=1;fillColor=#6a00ff;fontColor=#ffffff;strokeColor=#3700CC;" vertex="1" parent="1">
          <mxGeometry x="690" y="340" width="120" height="80" as="geometry" />
        </mxCell>
        <mxCell id="HDWZiregH_nEVvl4NQ3f-16" value="" style="endArrow=none;html=1;rounded=0;exitX=0.5;exitY=1;exitDx=0;exitDy=0;" edge="1" parent="1" source="HDWZiregH_nEVvl4NQ3f-3" target="HDWZiregH_nEVvl4NQ3f-17">
          <mxGeometry width="50" height="50" relative="1" as="geometry">
            <mxPoint x="400" y="440" as="sourcePoint" />
            <mxPoint x="510" y="460" as="targetPoint" />
          </mxGeometry>
        </mxCell>
        <mxCell id="HDWZiregH_nEVvl4NQ3f-17" value="&lt;font style=&quot;font-size: 22px;&quot;&gt;Game&lt;/font&gt;" style="ellipse;whiteSpace=wrap;html=1;fillColor=#a20025;fontColor=#ffffff;strokeColor=#6F0000;" vertex="1" parent="1">
          <mxGeometry x="490" y="420" width="120" height="80" as="geometry" />
        </mxCell>
        <mxCell id="HDWZiregH_nEVvl4NQ3f-18" value="" style="endArrow=none;html=1;rounded=0;exitX=1;exitY=0.5;exitDx=0;exitDy=0;" edge="1" parent="1" source="HDWZiregH_nEVvl4NQ3f-17" target="HDWZiregH_nEVvl4NQ3f-19">
          <mxGeometry width="50" height="50" relative="1" as="geometry">
            <mxPoint x="400" y="440" as="sourcePoint" />
            <mxPoint x="710" y="470" as="targetPoint" />
          </mxGeometry>
        </mxCell>
        <mxCell id="HDWZiregH_nEVvl4NQ3f-19" value="&lt;font style=&quot;font-size: 26px;&quot;&gt;Play&lt;/font&gt;" style="ellipse;whiteSpace=wrap;html=1;fillColor=#a20025;fontColor=#ffffff;strokeColor=#6F0000;" vertex="1" parent="1">
          <mxGeometry x="680" y="450" width="120" height="80" as="geometry" />
        </mxCell>
        <mxCell id="HDWZiregH_nEVvl4NQ3f-20" value="" style="endArrow=none;html=1;rounded=0;exitX=0.792;exitY=0.975;exitDx=0;exitDy=0;exitPerimeter=0;" edge="1" parent="1" source="HDWZiregH_nEVvl4NQ3f-17" target="HDWZiregH_nEVvl4NQ3f-21">
          <mxGeometry width="50" height="50" relative="1" as="geometry">
            <mxPoint x="400" y="440" as="sourcePoint" />
            <mxPoint x="690" y="590" as="targetPoint" />
          </mxGeometry>
        </mxCell>
        <mxCell id="HDWZiregH_nEVvl4NQ3f-21" value="&lt;font style=&quot;font-size: 14px;&quot;&gt;With friend/with random opponent&lt;br&gt;&lt;/font&gt;" style="ellipse;whiteSpace=wrap;html=1;fillColor=#a20025;fontColor=#ffffff;strokeColor=#6F0000;" vertex="1" parent="1">
          <mxGeometry x="680" y="550" width="120" height="80" as="geometry" />
        </mxCell>
        <mxCell id="HDWZiregH_nEVvl4NQ3f-22" value="" style="endArrow=none;html=1;rounded=0;exitX=0.5;exitY=1;exitDx=0;exitDy=0;entryX=0.008;entryY=0.365;entryDx=0;entryDy=0;entryPerimeter=0;" edge="1" parent="1" source="HDWZiregH_nEVvl4NQ3f-17" target="HDWZiregH_nEVvl4NQ3f-26">
          <mxGeometry width="50" height="50" relative="1" as="geometry">
            <mxPoint x="400" y="440" as="sourcePoint" />
            <mxPoint x="690" y="660" as="targetPoint" />
          </mxGeometry>
        </mxCell>
        <mxCell id="HDWZiregH_nEVvl4NQ3f-24" value="" style="endArrow=none;html=1;rounded=0;exitX=0.925;exitY=0.163;exitDx=0;exitDy=0;exitPerimeter=0;entryX=0;entryY=1;entryDx=0;entryDy=0;" edge="1" parent="1" source="HDWZiregH_nEVvl4NQ3f-7" target="HDWZiregH_nEVvl4NQ3f-25">
          <mxGeometry width="50" height="50" relative="1" as="geometry">
            <mxPoint x="430" y="200" as="sourcePoint" />
            <mxPoint x="730" y="90" as="targetPoint" />
          </mxGeometry>
        </mxCell>
        <mxCell id="HDWZiregH_nEVvl4NQ3f-25" value="&lt;div style=&quot;font-size: 16px;&quot;&gt;&lt;font style=&quot;font-size: 16px;&quot;&gt;Challenge Friend&lt;/font&gt;&lt;/div&gt;&lt;div style=&quot;font-size: 16px;&quot;&gt;&lt;font style=&quot;font-size: 16px;&quot;&gt;To Match&lt;font style=&quot;font-size: 16px;&quot;&gt;&lt;br&gt;&lt;/font&gt;&lt;/font&gt;&lt;/div&gt;" style="ellipse;whiteSpace=wrap;html=1;fillColor=#6a00ff;fontColor=#ffffff;strokeColor=#3700CC;" vertex="1" parent="1">
          <mxGeometry x="690" y="40" width="120" height="80" as="geometry" />
        </mxCell>
        <mxCell id="HDWZiregH_nEVvl4NQ3f-26" value="&lt;font style=&quot;font-size: 20px;&quot;&gt;Resign&lt;/font&gt;" style="ellipse;whiteSpace=wrap;html=1;fillColor=#a20025;fontColor=#ffffff;strokeColor=#6F0000;" vertex="1" parent="1">
          <mxGeometry x="690" y="640" width="120" height="80" as="geometry" />
        </mxCell>
        <mxCell id="HDWZiregH_nEVvl4NQ3f-27" value="" style="endArrow=none;html=1;rounded=0;entryX=0.5;entryY=0;entryDx=0;entryDy=0;" edge="1" parent="1" target="HDWZiregH_nEVvl4NQ3f-31">
          <mxGeometry width="50" height="50" relative="1" as="geometry">
            <mxPoint x="380" y="330" as="sourcePoint" />
            <mxPoint x="310" y="530" as="targetPoint" />
          </mxGeometry>
        </mxCell>
        <mxCell id="HDWZiregH_nEVvl4NQ3f-31" value="&lt;font style=&quot;font-size: 24px;&quot;&gt;Profile&lt;/font&gt;" style="ellipse;whiteSpace=wrap;html=1;fillColor=#76608a;fontColor=#ffffff;strokeColor=#432D57;" vertex="1" parent="1">
          <mxGeometry x="270" y="500" width="120" height="80" as="geometry" />
        </mxCell>
        <mxCell id="HDWZiregH_nEVvl4NQ3f-32" value="" style="endArrow=none;html=1;rounded=0;exitX=0.076;exitY=0.823;exitDx=0;exitDy=0;exitPerimeter=0;" edge="1" parent="1" source="HDWZiregH_nEVvl4NQ3f-31" target="HDWZiregH_nEVvl4NQ3f-33">
          <mxGeometry width="50" height="50" relative="1" as="geometry">
            <mxPoint x="430" y="430" as="sourcePoint" />
            <mxPoint x="210" y="650" as="targetPoint" />
          </mxGeometry>
        </mxCell>
        <mxCell id="HDWZiregH_nEVvl4NQ3f-33" value="&lt;font style=&quot;font-size: 18px;&quot;&gt;View Match History&lt;br&gt;&lt;/font&gt;" style="ellipse;whiteSpace=wrap;html=1;fillColor=#76608a;fontColor=#ffffff;strokeColor=#432D57;" vertex="1" parent="1">
          <mxGeometry x="150" y="610" width="120" height="80" as="geometry" />
        </mxCell>
        <mxCell id="HDWZiregH_nEVvl4NQ3f-34" value="" style="endArrow=none;html=1;rounded=0;exitX=0.5;exitY=1;exitDx=0;exitDy=0;" edge="1" parent="1" source="HDWZiregH_nEVvl4NQ3f-31" target="HDWZiregH_nEVvl4NQ3f-35">
          <mxGeometry width="50" height="50" relative="1" as="geometry">
            <mxPoint x="430" y="430" as="sourcePoint" />
            <mxPoint x="330" y="620" as="targetPoint" />
          </mxGeometry>
        </mxCell>
        <mxCell id="HDWZiregH_nEVvl4NQ3f-35" value="&lt;font style=&quot;font-size: 16px;&quot;&gt;Customize Look&lt;br&gt;&lt;/font&gt;" style="ellipse;whiteSpace=wrap;html=1;fillColor=#76608a;fontColor=#ffffff;strokeColor=#432D57;" vertex="1" parent="1">
          <mxGeometry x="280" y="630" width="120" height="80" as="geometry" />
        </mxCell>
        <mxCell id="HDWZiregH_nEVvl4NQ3f-36" value="" style="endArrow=none;html=1;rounded=0;exitX=1;exitY=1;exitDx=0;exitDy=0;" edge="1" parent="1" source="HDWZiregH_nEVvl4NQ3f-31" target="HDWZiregH_nEVvl4NQ3f-37">
          <mxGeometry width="50" height="50" relative="1" as="geometry">
            <mxPoint x="430" y="430" as="sourcePoint" />
            <mxPoint x="450" y="630" as="targetPoint" />
          </mxGeometry>
        </mxCell>
        <mxCell id="HDWZiregH_nEVvl4NQ3f-37" value="&lt;font style=&quot;font-size: 14px;&quot;&gt;Rating Display&lt;br&gt;&lt;/font&gt;" style="ellipse;whiteSpace=wrap;html=1;fillColor=#76608a;fontColor=#ffffff;strokeColor=#432D57;" vertex="1" parent="1">
          <mxGeometry x="420" y="610" width="120" height="80" as="geometry" />
        </mxCell>
        <mxCell id="HDWZiregH_nEVvl4NQ3f-41" value="" style="endArrow=none;html=1;rounded=0;exitX=0;exitY=0;exitDx=0;exitDy=0;" edge="1" parent="1" source="HDWZiregH_nEVvl4NQ3f-7" target="HDWZiregH_nEVvl4NQ3f-42">
          <mxGeometry width="50" height="50" relative="1" as="geometry">
            <mxPoint x="430" y="430" as="sourcePoint" />
            <mxPoint x="470" y="140" as="targetPoint" />
          </mxGeometry>
        </mxCell>
        <mxCell id="HDWZiregH_nEVvl4NQ3f-42" value="&lt;font style=&quot;font-size: 15px;&quot;&gt;Search players&lt;br&gt;&lt;/font&gt;" style="ellipse;whiteSpace=wrap;html=1;fillColor=#6a00ff;fontColor=#ffffff;strokeColor=#3700CC;" vertex="1" parent="1">
          <mxGeometry x="390" y="30" width="120" height="80" as="geometry" />
        </mxCell>
      </root>
    </mxGraphModel>
  </diagram>
</mxfile>
